<svg width="144" height="150" viewBox="0 0 144 150" fill="none" xmlns="http://www.w3.org/2000/svg">
<path d="M127.591 32.6542L127.578 29.369L124.558 28.0768L74.494 6.65699L72.5451 5.82315L70.5908 6.64415L18.6554 28.4614L15.5789 29.7538L15.5919 33.0907L15.8982 111.689L15.9102 114.762L18.6575 116.139L70.7798 142.267L73.0882 143.424L75.3681 142.212L125.245 115.687L127.909 114.27L127.897 111.253L127.591 32.6542Z" stroke="#7FFFD4" stroke-width="10"/>
<path d="M84.2 63.1565V67.8065H74.95V97.9065H69.25V67.8065H59.95V63.1565H84.2Z" fill="#7FFFD4"/>
<path d="M60.1931 101.498L60.4595 91.3013L48.4636 90.9879L48.5851 86.3395L60.581 86.6529L60.8591 76.0065L47.3637 75.6539L47.4852 71.0055L66.6786 71.507L65.7697 106.295L46.5762 105.794L46.6977 101.145L60.1931 101.498Z" fill="#7FFFD4"/>
<path d="M58.8518 53.8795L69.0516 53.8124L68.9726 41.8127L73.6225 41.7821L73.7015 53.7818L84.3512 53.7118L84.2624 40.212L88.9123 40.1815L89.0386 59.381L54.2394 59.6099L54.1131 40.4104L58.763 40.3798L58.8518 53.8795Z" fill="#7FFFD4"/>
<path d="M82.9662 76.1171L83.1789 86.3149L95.1763 86.0646L95.2733 90.7136L83.2759 90.9639L83.498 101.612L96.9951 101.33L97.0921 105.979L77.8963 106.379L77.1705 71.587L96.3663 71.1866L96.4633 75.8356L82.9662 76.1171Z" fill="#7FFFD4"/>
</svg>
